<svg width="35" height="36" viewBox="0 0 35 36" fill="none" xmlns="http://www.w3.org/2000/svg">
<path fill-rule="evenodd" clip-rule="evenodd" d="M17.5 0.950288C7.8325 0.950288 0 8.77529 0 18.4328C0 26.1578 5.015 32.7078 11.9675 35.0203C12.8425 35.1803 13.1625 34.6403 13.1625 34.1778C13.1625 33.7628 13.1475 32.6628 13.1375 31.2028C8.27 32.2603 7.245 28.8603 7.245 28.8603C6.4475 26.8403 5.3 26.3028 5.3 26.3028C3.7125 25.2178 5.42 25.2403 5.42 25.2403C7.1775 25.3653 8.1025 27.0403 8.1025 27.0403C9.6625 29.7153 12.1975 28.9403 13.195 28.4953C13.3525 27.3653 13.805 26.5953 14.305 26.1578C10.42 25.7178 6.335 24.2178 6.335 17.5178C6.335 15.6103 7.0175 14.0478 8.135 12.8278C7.955 12.3853 7.355 10.6078 8.31 8.20279C8.31 8.20279 9.775 7.73029 13.12 9.99279C14.5476 9.60384 16.0204 9.40546 17.5 9.40279C18.9875 9.41029 20.485 9.60279 21.8825 9.99279C25.2225 7.73029 26.69 8.20029 26.69 8.20029C27.645 10.6078 27.045 12.3853 26.865 12.8253C27.985 14.0503 28.665 15.6103 28.665 17.5178C28.665 24.2328 24.57 25.7128 20.6725 26.1428C21.3 26.6828 21.86 27.7503 21.86 29.3828C21.86 31.7178 21.8375 33.6028 21.8375 34.1778C21.8375 34.6453 22.155 35.1878 23.0425 35.0178C26.5234 33.8571 29.5512 31.631 31.6971 28.6545C33.8431 25.6781 34.9985 22.1022 35 18.4328C34.9973 13.7939 33.1522 9.34607 29.8704 6.06754C26.5886 2.789 22.1389 0.948299 17.5 0.950288Z" fill="#CDD6F4"/>
</svg>
