<svg width="40" height="40" viewBox="0 0 40 40" fill="none" xmlns="http://www.w3.org/2000/svg">
<path d="M28.9612 0H11.0383C4.95179 0 0 4.95203 0 11.0386V28.9614C0 35.0482 4.95179 40 11.0383 40H28.9612C35.0482 40 40 35.048 40 28.9614V11.0386C40.0002 4.95203 35.0482 0 28.9612 0ZM36.4512 28.9614C36.4512 33.0913 33.0913 36.451 28.9614 36.451H11.0383C6.90871 36.4512 3.54899 33.0913 3.54899 28.9614V11.0386C3.54899 6.90894 6.90871 3.54899 11.0383 3.54899H28.9612C33.0911 3.54899 36.451 6.90894 36.451 11.0386V28.9614H36.4512Z" fill="#CDD6F4"/>
<path d="M20 9.69348C14.3166 9.69348 9.69302 14.3171 9.69302 20.0005C9.69302 25.6836 14.3166 30.307 20 30.307C25.6834 30.307 30.307 25.6836 30.307 20.0005C30.307 14.3171 25.6834 9.69348 20 9.69348ZM20 26.7578C16.2738 26.7578 13.242 23.7264 13.242 20.0002C13.242 16.2738 16.2736 13.2422 20 13.2422C23.7264 13.2422 26.758 16.2738 26.758 20.0002C26.758 23.7264 23.7262 26.7578 20 26.7578Z" fill="#CDD6F4"/>
<path d="M30.7393 6.68417C30.0555 6.68417 29.3838 6.961 28.9009 7.44602C28.4156 7.92869 28.1367 8.60063 28.1367 9.28677C28.1367 9.97078 28.4159 10.6425 28.9009 11.1275C29.3835 11.6102 30.0555 11.8894 30.7393 11.8894C31.4254 11.8894 32.095 11.6102 32.58 11.1275C33.065 10.6425 33.3419 9.97054 33.3419 9.28677C33.3419 8.60063 33.065 7.92869 32.58 7.44602C32.0973 6.961 31.4254 6.68417 30.7393 6.68417Z" fill="#CDD6F4"/>
</svg>
